HIERARCHY
ROOT Hips
{
	OFFSET 0.000001 107.585541 -0.292875
	CHANNELS 6 Xposition Yposition Zposition Xrotation Yrotation Zrotation
	JOINT Spine
	{
		OFFSET -0.023067 13.156998 0.957426
		CHANNELS 6 Xposition Yposition Zposition Xrotation Yrotation Zrotation
		JOINT Spine1
		{
			OFFSET 0.000000 9.894669 0.072741
			CHANNELS 3 Xrotation Yrotation Zrotation
			JOINT Spine2
			{
				OFFSET 0.000000 10.499985 -0.058234
				CHANNELS 3 Xrotation Yrotation Zrotation
				JOINT Neck
				{
					OFFSET -0.000000 26.776306 -4.691216
					CHANNELS 6 Xposition Yposition Zposition Xrotation Yrotation Zrotation
					JOINT Head
					{
						OFFSET 0.000000 14.063217 3.449322
						CHANNELS 6 Xposition Yposition Zposition Xrotation Yrotation Zrotation
						JOINT HeadTop_End
						{
							OFFSET 0.000000 19.645248 2.611582
							CHANNELS 6 Xposition Yposition Zposition Xrotation Yrotation Zrotation
							End Site
							{
								OFFSET 0.000000 14.113129 0.000000
							}
						}
						JOINT L_Eye
						{
							OFFSET 3.570282 7.264572 7.838836
							CHANNELS 6 Xposition Yposition Zposition Xrotation Yrotation Zrotation
							End Site
							{
								OFFSET 0.000000 14.113129 0.000000
							}
						}
						JOINT R_Eye
						{
							OFFSET -3.524154 7.264282 7.838838
							CHANNELS 6 Xposition Yposition Zposition Xrotation Yrotation Zrotation
							End Site
							{
								OFFSET 0.000000 14.113129 0.000000
							}
						}
					}
				}
				JOINT L_Shoulder
				{
					OFFSET 7.980431 21.886398 -6.266449
					CHANNELS 6 Xposition Yposition Zposition Xrotation Yrotation Zrotation
					JOINT L_Arm
					{
						OFFSET 10.677479 -5.478394 -0.078065
						CHANNELS 3 Xrotation Yrotation Zrotation
						JOINT L_ForeArm
						{
							OFFSET 27.567778 0.000015 0.000000
							CHANNELS 3 Xrotation Yrotation Zrotation
							JOINT L_Hand
							{
								OFFSET 27.500092 -0.000015 0.480016
								CHANNELS 3 Xrotation Yrotation Zrotation
								JOINT L_HandThumb1
								{
									OFFSET 5.751503 -2.607742 4.214736
									CHANNELS 6 Xposition Yposition Zposition Xrotation Yrotation Zrotation
									JOINT L_HandThumb2
									{
										OFFSET 2.728218 -1.585464 1.645159
										CHANNELS 6 Xposition Yposition Zposition Xrotation Yrotation Zrotation
										JOINT L_HandThumb3
										{
											OFFSET 2.690651 -1.563644 1.622507
											CHANNELS 6 Xposition Yposition Zposition Xrotation Yrotation Zrotation
											JOINT L_HandThumb4
											{
												OFFSET 2.811111 -1.633636 1.695147
												CHANNELS 6 Xposition Yposition Zposition Xrotation Yrotation Zrotation
												End Site
												{
													OFFSET 2.811104 -1.633652 1.695142
												}
											}
										}
									}
								}
								JOINT L_HandIndex1
								{
									OFFSET 13.704086 -1.118973 2.963548
									CHANNELS 6 Xposition Yposition Zposition Xrotation Yrotation Zrotation
									JOINT L_HandIndex2
									{
										OFFSET 2.538002 -0.000046 0.044317
										CHANNELS 3 Xrotation Yrotation Zrotation
										JOINT L_HandIndex3
										{
											OFFSET 3.551018 0.000015 0.062044
											CHANNELS 3 Xrotation Yrotation Zrotation
											JOINT L_HandIndex4
											{
												OFFSET 3.082214 0.000031 0.053894
												CHANNELS 3 Xrotation Yrotation Zrotation
												End Site
												{
													OFFSET 3.082214 0.000046 0.053895
												}
											}
										}
									}
								}
								JOINT L_HandMiddle1
								{
									OFFSET 13.314011 -0.054794 0.195248
									CHANNELS 6 Xposition Yposition Zposition Xrotation Yrotation Zrotation
									JOINT L_HandMiddle2
									{
										OFFSET 4.054405 -0.000015 0.070800
										CHANNELS 3 Xrotation Yrotation Zrotation
										JOINT L_HandMiddle3
										{
											OFFSET 2.984230 -0.000031 0.052059
											CHANNELS 3 Xrotation Yrotation Zrotation
											JOINT L_HandMiddle4
											{
												OFFSET 3.040154 -0.000031 0.053016
												CHANNELS 3 Xrotation Yrotation Zrotation
												End Site
												{
													OFFSET 3.040154 0.000000 0.053016
												}
											}
										}
									}
								}
								JOINT L_HandRing1
								{
									OFFSET 12.889366 0.014862 -3.304775
									CHANNELS 6 Xposition Yposition Zposition Xrotation Yrotation Zrotation
									JOINT L_HandRing2
									{
										OFFSET 4.066383 0.000000 0.071006
										CHANNELS 3 Xrotation Yrotation Zrotation
										JOINT L_HandRing3
										{
											OFFSET 2.688652 0.000061 0.047021
											CHANNELS 3 Xrotation Yrotation Zrotation
											JOINT L_HandRing4
											{
												OFFSET 2.892899 0.000000 0.050566
												CHANNELS 3 Xrotation Yrotation Zrotation
												End Site
												{
													OFFSET 2.892906 0.000015 0.050566
												}
											}
										}
									}
								}
								JOINT L_HandPinky1
								{
									OFFSET 12.770164 -1.052109 -6.055603
									CHANNELS 6 Xposition Yposition Zposition Xrotation Yrotation Zrotation
									JOINT L_HandPinky2
									{
										OFFSET 3.092682 -0.000046 0.054011
										CHANNELS 3 Xrotation Yrotation Zrotation
										JOINT L_HandPinky3
										{
											OFFSET 2.176254 0.000031 0.038088
											CHANNELS 3 Xrotation Yrotation Zrotation
											JOINT L_HandPinky4
											{
												OFFSET 2.208496 -0.000031 0.038607
												CHANNELS 3 Xrotation Yrotation Zrotation
												End Site
												{
													OFFSET 2.208504 -0.000031 0.038607
												}
											}
										}
									}
								}
							}
						}
					}
				}
				JOINT R_Shoulder
				{
					OFFSET -7.980434 21.886810 -6.266449
					CHANNELS 6 Xposition Yposition Zposition Xrotation Yrotation Zrotation
					JOINT R_Arm
					{
						OFFSET -10.677509 -5.479004 -0.078070
						CHANNELS 3 Xrotation Yrotation Zrotation
						JOINT R_ForeArm
						{
							OFFSET -27.567785 0.000000 -0.000000
							CHANNELS 3 Xrotation Yrotation Zrotation
							JOINT R_Hand
							{
								OFFSET -27.500015 0.000000 0.480015
								CHANNELS 3 Xrotation Yrotation Zrotation
								JOINT R_HandThumb1
								{
									OFFSET -5.971848 -2.424500 3.942988
									CHANNELS 6 Xposition Yposition Zposition Xrotation Yrotation Zrotation
									JOINT R_HandThumb2
									{
										OFFSET -2.728195 -1.584976 1.645155
										CHANNELS 6 Xposition Yposition Zposition Xrotation Yrotation Zrotation
										JOINT R_HandThumb3
										{
											OFFSET -2.690704 -1.563995 1.622524
											CHANNELS 6 Xposition Yposition Zposition Xrotation Yrotation Zrotation
											JOINT R_HandThumb4
											{
												OFFSET -2.811142 -1.633011 1.695130
												CHANNELS 6 Xposition Yposition Zposition Xrotation Yrotation Zrotation
												End Site
												{
													OFFSET -2.811142 -1.632996 1.695138
												}
											}
										}
									}
								}
								JOINT R_HandIndex1
								{
									OFFSET -13.521736 -0.054581 0.198885
									CHANNELS 6 Xposition Yposition Zposition Xrotation Yrotation Zrotation
									JOINT R_HandIndex2
									{
										OFFSET -4.381210 0.000015 0.076519
										CHANNELS 3 Xrotation Yrotation Zrotation
										JOINT R_HandIndex3
										{
											OFFSET -3.478577 0.000031 0.060751
											CHANNELS 3 Xrotation Yrotation Zrotation
											JOINT R_HandIndex4
											{
												OFFSET -6.319054 -0.000015 0.110473
												CHANNELS 3 Xrotation Yrotation Zrotation
												End Site
												{
													OFFSET -6.319061 0.000015 0.110474
												}
											}
										}
									}
								}
								JOINT R_HandRing1
								{
									OFFSET -12.702789 0.785950 -3.722343
									CHANNELS 6 Xposition Yposition Zposition Xrotation Yrotation Zrotation
									JOINT R_HandRing2
									{
										OFFSET -4.066383 0.000000 0.070999
										CHANNELS 3 Xrotation Yrotation Zrotation
										JOINT R_HandRing3
										{
											OFFSET -2.688583 0.000015 0.047006
											CHANNELS 3 Xrotation Yrotation Zrotation
											JOINT R_HandRing4
											{
												OFFSET -2.892967 -0.000015 0.050556
												CHANNELS 3 Xrotation Yrotation Zrotation
												End Site
												{
													OFFSET -2.892960 0.000015 0.050555
												}
											}
										}
									}
								}
								JOINT R_HandPinky1
								{
									OFFSET -12.544357 -0.205673 -6.499258
									CHANNELS 6 Xposition Yposition Zposition Xrotation Yrotation Zrotation
									JOINT R_HandPinky2
									{
										OFFSET -3.092621 0.000000 0.053982
										CHANNELS 3 Xrotation Yrotation Zrotation
										JOINT R_HandPinky3
										{
											OFFSET -2.176262 0.000000 0.037988
											CHANNELS 3 Xrotation Yrotation Zrotation
											JOINT R_HandPinky4
											{
												OFFSET -2.208572 0.000000 0.038550
												CHANNELS 3 Xrotation Yrotation Zrotation
												End Site
												{
													OFFSET -2.208565 0.000000 0.038550
												}
											}
										}
									}
								}
							}
						}
					}
				}
			}
		}
	}
	JOINT L_UpLeg
	{
		OFFSET 10.121319 -5.316734 0.163048
		CHANNELS 6 Xposition Yposition Zposition Xrotation Yrotation Zrotation
		JOINT L_Leg
		{
			OFFSET -0.000002 -40.854481 0.206897
			CHANNELS 3 Xrotation Yrotation Zrotation
			JOINT L_Foot
			{
				OFFSET 0.000002 -52.055374 -3.073691
				CHANNELS 3 Xrotation Yrotation Zrotation
				JOINT L_ToeBase
				{
					OFFSET 1.169127 -9.354687 13.784521
					CHANNELS 6 Xposition Yposition Zposition Xrotation Yrotation Zrotation
					JOINT L_Toe_End
					{
						OFFSET 0.516993 -0.004916 8.312323
						CHANNELS 6 Xposition Yposition Zposition Xrotation Yrotation Zrotation
						End Site
						{
							OFFSET 0.516995 -0.004916 8.312323
						}
					}
				}
			}
		}
	}
	JOINT R_UpLeg
	{
		OFFSET -10.121301 -5.316544 0.163048
		CHANNELS 6 Xposition Yposition Zposition Xrotation Yrotation Zrotation
		JOINT R_Leg
		{
			OFFSET 0.000055 -40.854687 0.206898
			CHANNELS 3 Xrotation Yrotation Zrotation
			JOINT R_Foot
			{
				OFFSET -0.000054 -52.055359 -3.073693
				CHANNELS 3 Xrotation Yrotation Zrotation
				JOINT R_ToeBase
				{
					OFFSET -1.169123 -9.354716 13.784500
					CHANNELS 6 Xposition Yposition Zposition Xrotation Yrotation Zrotation
					JOINT R_Toe_End
					{
						OFFSET -0.516972 -0.004950 8.311937
						CHANNELS 6 Xposition Yposition Zposition Xrotation Yrotation Zrotation
						End Site
						{
							OFFSET -0.516973 -0.004951 8.311935
						}
					}
				}
			}
		}
	}
}
MOTION
Frames: 4
Frame Time: 0.033333
0.433361 97.601891 -1.018293 13.141670 -21.136463 1.982445 -0.023068 13.157017 0.957424 10.268529 0.677803 -1.618943 7.415108 0.385419 -1.503429 7.404849 0.478885 -1.535130 0.000002 26.776272 -4.691204 -9.044369 2.913607 -1.663287 0.000000 14.063230 3.449322 -17.682110 12.029165 0.130493 0.000000 19.645264 2.611587 0.000001 0.000000 -0.000000 3.570282 7.264587 7.838833 0.000001 -0.000000 -0.000000 -3.524154 7.264313 7.838835 0.000001 -0.000000 -0.000000 7.980437 21.886375 -6.266449 1.704634 -8.242497 -9.850605 -21.023148 -6.942086 -50.850816 -0.125477 -89.982456 -0.096159 33.297667 18.887829 12.047311 5.751507 -2.607740 4.214741 11.606287 14.777437 -8.593553 2.728218 -1.585460 1.645154 -6.172420 21.509413 4.081901 2.690664 -1.563676 1.622507 -5.309016 8.543196 3.542010 2.811112 -1.633628 1.695143 -0.000000 0.000003 -0.000000 13.704102 -1.118999 2.963546 0.662290 2.303245 -18.030409 0.894940 2.611884 -21.962461 0.321923 1.349432 -10.972861 -0.000000 0.000001 0.000001 13.314026 -0.054778 0.195247 0.661425 2.301426 -18.015206 0.895276 2.612180 -21.976432 0.321451 1.348286 -10.973157 -0.000000 0.000002 0.000001 12.889360 0.014855 -3.304774 0.662310 2.303244 -18.031411 0.895203 2.612831 -21.961881 0.321843 1.348147 -10.972252 -0.000000 -0.000001 -0.000000 12.770153 -1.052129 -6.055607 1.896152 6.163966 -17.592667 0.909502 -1.446479 -22.427286 0.321845 1.347449 -10.971357 0.000001 0.000001 -0.000002 -7.980438 21.886761 -6.266447 6.850029 19.287469 8.964996 -25.506334 24.102331 41.654622 0.000034 91.725028 0.000082 29.888051 -18.235669 -22.025113 -5.971840 -2.424519 3.942985 14.831254 -5.614132 18.418216 -2.728217 -1.584996 1.645161 0.932980 -33.837666 -9.811197 -2.690702 -1.563980 1.622507 -2.067919 -12.439242 -6.640894 -2.811152 -1.632993 1.695150 -0.000003 0.000002 0.000004 -13.521737 -0.054574 0.198883 1.484658 -3.485475 30.988951 0.401761 -1.510619 13.055193 0.157893 -0.767895 6.525360 -0.000004 -0.000001 -0.000001 -12.702786 0.785951 -3.722342 1.484509 -3.485223 30.988749 0.402011 -1.511987 13.055109 0.157861 -0.766298 6.525651 -0.000001 0.000000 0.000003 -12.544357 -0.205681 -6.499258 1.484351 -3.484965 30.988732 0.401663 -1.510734 13.055095 0.157719 -0.766799 6.525666 0.000001 0.000001 -0.000004 10.121318 -5.316735 0.163047 -51.132545 1.406081 20.812985 42.165476 -6.641520 3.389518 -1.184396 0.967079 -16.268935 1.169130 -9.354694 13.784519 -0.696768 -0.000007 0.000008 0.516997 -0.004915 8.312326 0.000001 0.000001 -0.000000 -10.121303 -5.316535 0.163055 -41.182776 -5.945168 -16.784884 44.164314 3.377046 -5.577047 -11.984246 -2.351252 15.151530 -1.169126 -9.354713 13.784502 -0.014871 0.000010 -0.000005 -0.516966 -0.004952 8.311939 0.000004 0.000003 0.000001 
0.329143 97.715996 -1.093782 12.595414 -21.291009 1.576718 -0.023067 13.157001 0.957430 10.323181 0.640963 -1.630484 7.413197 0.367870 -1.492290 7.403281 0.457043 -1.523497 0.000003 26.776287 -4.691201 -9.178941 2.882564 -1.476867 0.000003 14.063220 3.449324 -17.149681 12.173051 -0.285997 0.000001 19.645248 2.611584 0.000000 0.000000 -0.000000 3.570282 7.264587 7.838833 0.000000 0.000000 -0.000000 -3.524153 7.264297 7.838832 0.000000 0.000000 -0.000000 7.980441 21.886391 -6.266449 1.775304 -8.352817 -9.905844 -19.814676 -6.549773 -51.636555 0.000861 -90.982054 0.000610 33.726009 19.590927 11.167416 5.751508 -2.607764 4.214731 11.677534 15.004213 -8.622779 2.728229 -1.585468 1.645152 -6.240983 21.613152 4.115931 2.690654 -1.563663 1.622510 -5.338426 8.597509 3.554724 2.811101 -1.633626 1.695144 -0.000000 0.000006 -0.000002 13.704098 -1.118988 2.963542 0.668099 2.315173 -18.135399 0.915369 2.647190 -22.285429 0.328566 1.368694 -11.134046 0.000001 0.000002 0.000001 13.314015 -0.054780 0.195240 0.667255 2.313346 -18.120179 0.915705 2.647473 -22.299427 0.328088 1.367551 -11.134334 -0.000000 -0.000003 0.000000 12.889349 0.014835 -3.304778 0.668121 2.315171 -18.136398 0.915640 2.648134 -22.284853 0.328486 1.367407 -11.133435 0.000001 -0.000002 0.000001 12.770160 -1.052120 -6.055606 1.909119 6.173633 -17.698405 0.930207 -1.411329 -22.748812 0.328476 1.366707 -11.132527 0.000001 0.000003 -0.000000 -7.980430 21.886786 -6.266439 6.917329 19.351345 8.971765 -23.709789 23.115978 42.108082 -0.000003 93.131467 0.000024 31.415394 -17.640907 -20.042254 -5.971844 -2.424498 3.942979 15.107210 -5.679547 18.522133 -2.728196 -1.584987 1.645167 1.010149 -34.027162 -9.834257 -2.690704 -1.563983 1.622508 -2.021517 -12.530818 -6.656430 -2.811143 -1.632994 1.695147 -0.000003 0.000006 0.000001 -13.521745 -0.054583 0.198887 1.502108 -3.506645 31.218134 0.411522 -1.535361 13.277100 0.161324 -0.780746 6.636232 -0.000001 0.000000 0.000001 -12.702797 0.785955 -3.722342 1.501951 -3.506391 31.217933 0.411773 -1.536729 13.277010 0.161294 -0.779151 6.636525 -0.000002 0.000002 0.000000 -12.544352 -0.205679 -6.499262 1.501793 -3.506129 31.217919 0.411418 -1.535479 13.277000 0.161149 -0.779657 6.636546 0.000002 -0.000001 0.000001 10.121321 -5.316733 0.163050 -50.496572 1.657351 21.218953 41.806215 -6.970307 3.443759 -1.179635 0.978600 -16.257792 1.169123 -9.354691 13.784522 -0.550278 -0.000002 0.000002 0.516996 -0.004915 8.312338 0.000001 -0.000000 -0.000000 -10.121300 -5.316545 0.163053 -40.467764 -6.179545 -16.478707 43.819379 3.371650 -5.532300 -11.953990 -2.326939 15.020836 -1.169121 -9.354714 13.784504 -0.017118 -0.000007 0.000006 -0.516962 -0.004952 8.311938 0.000004 0.000007 0.000000 
0.272362 97.818916 -1.130750 12.052494 -21.476613 1.188236 -0.023068 13.157011 0.957429 10.299302 0.571249 -1.573453 7.365722 0.325174 -1.433891 7.356814 0.414498 -1.464291 -0.000002 26.776302 -4.691200 -9.025993 2.844844 -1.264101 0.000000 14.063214 3.449323 -16.320889 12.389251 -0.665676 0.000001 19.645233 2.611582 0.000001 0.000000 -0.000000 3.570282 7.264603 7.838831 0.000001 -0.000000 -0.000000 -3.524154 7.264328 7.838828 0.000001 -0.000000 -0.000000 7.980433 21.886383 -6.266438 1.859780 -8.455640 -9.975540 -18.339104 -6.596619 -52.461799 0.000919 -91.825412 0.000728 34.307275 20.672874 10.121197 5.751500 -2.607738 4.214732 11.801847 15.396700 -8.674192 2.728229 -1.585441 1.645160 -6.364095 21.798878 4.176926 2.690664 -1.563652 1.622514 -5.391166 8.694767 3.577542 2.811117 -1.633626 1.695147 -0.000002 0.000003 -0.000002 13.704093 -1.118973 2.963543 0.679875 2.339098 -18.346561 0.957943 2.719259 -22.948233 0.342353 1.408203 -11.464788 -0.000001 -0.000002 0.000002 13.314004 -0.054784 0.195239 0.679011 2.337282 -18.331347 0.958280 2.719535 -22.962220 0.341861 1.407047 -11.465082 -0.000001 -0.000001 -0.000001 12.889366 0.014852 -3.304778 0.679893 2.339094 -18.347562 0.958221 2.720202 -22.947655 0.342268 1.406914 -11.464181 0.000000 -0.000001 0.000000 12.770177 -1.052121 -6.055613 1.935225 6.192966 -17.911102 0.973336 -1.339647 -23.408590 0.342272 1.406209 -11.463277 0.000000 -0.000001 -0.000002 -7.980442 21.886786 -6.266436 7.046186 19.559198 8.962865 -21.593100 21.905627 42.397846 0.000135 94.567002 -0.000067 32.761778 -16.695071 -18.238808 -5.971838 -2.424512 3.942983 15.632529 -5.800586 18.718528 -2.728209 -1.584993 1.645163 1.167120 -34.413645 -9.881644 -2.690704 -1.563954 1.622511 -1.926965 -12.717601 -6.688127 -2.811156 -1.633005 1.695147 -0.000002 0.000003 0.000002 -13.521735 -0.054591 0.198886 1.537409 -3.548905 31.678588 0.431288 -1.584635 13.719687 0.168252 -0.806361 6.857353 0.000003 -0.000003 0.000003 -12.702801 0.785934 -3.722340 1.537252 -3.548653 31.678373 0.431549 -1.586001 13.719596 0.168216 -0.804765 6.857646 -0.000000 0.000001 -0.000001 -12.544340 -0.205701 -6.499256 1.537094 -3.548394 31.678366 0.431183 -1.584749 13.719591 0.168061 -0.805266 6.857649 0.000001 -0.000001 0.000004 10.121321 -5.316726 0.163048 -49.898435 1.905747 21.604150 41.553259 -7.254359 3.484043 -1.209596 0.990104 -16.228465 1.169126 -9.354692 13.784524 -0.408095 0.000008 0.000004 0.517000 -0.004914 8.312317 0.000001 -0.000001 0.000000 -10.121297 -5.316539 0.163052 -39.762636 -6.407366 -16.216959 43.466474 3.427957 -5.501667 -11.893241 -2.305986 14.935216 -1.169121 -9.354714 13.784502 -0.017005 -0.000023 -0.000003 -0.516970 -0.004952 8.311933 0.000004 0.000001 0.000000 
0.303935 97.900223 -1.097691 11.523414 -21.724573 0.836063 -0.023067 13.156993 0.957428 10.235012 0.445176 -1.448535 7.308330 0.237475 -1.332180 7.301345 0.329424 -1.360350 0.000003 26.776316 -4.691218 -8.934208 2.826252 -1.004572 0.000000 14.063229 3.449325 -15.768450 12.758735 -0.920112 -0.000000 19.645248 2.611581 0.000001 0.000000 0.000000 3.570279 7.264587 7.838830 0.000001 0.000000 0.000000 -3.524155 7.264297 7.838831 0.000001 0.000000 0.000000 7.980435 21.886395 -6.266453 1.964593 -8.580685 -10.059096 -16.824354 -6.947697 -53.218884 0.000659 -92.686350 0.000576 34.988163 22.065660 8.983183 5.751514 -2.607752 4.214735 11.959318 15.888263 -8.739973 2.728199 -1.585446 1.645155 -6.522462 22.036750 4.255247 2.690663 -1.563642 1.622512 -5.458889 8.819418 3.606795 2.811114 -1.633624 1.695150 -0.000003 0.000007 -0.000004 13.704102 -1.118981 2.963544 0.696275 2.372078 -18.637971 1.020785 2.822221 -23.904062 0.362630 1.465021 -11.941690 -0.000000 -0.000000 0.000000 13.314030 -0.054791 0.195243 0.695397 2.370250 -18.622755 1.021127 2.822505 -23.918054 0.362106 1.463857 -11.942000 -0.000001 -0.000001 -0.000001 12.889359 0.014850 -3.304776 0.696293 2.372074 -18.638977 1.021079 2.823161 -23.903485 0.362541 1.463734 -11.941085 -0.000002 -0.000001 -0.000002 12.770182 -1.052123 -6.055609 1.971380 6.219500 -18.204650 1.036972 -1.237181 -24.359940 0.362541 1.463024 -11.940187 -0.000000 -0.000000 -0.000000 -7.980431 21.886787 -6.266451 7.216665 19.904631 8.924117 -19.370965 20.472249 42.635543 0.000081 95.989552 -0.000058 33.829667 -15.652990 -16.664731 -5.971832 -2.424520 3.942974 16.324926 -5.953431 18.974457 -2.728210 -1.584983 1.645169 1.395400 -34.977614 -9.951648 -2.690721 -1.563993 1.622506 -1.789240 -12.990246 -6.734465 -2.811168 -1.632981 1.695153 -0.000001 0.000000 0.000004 -13.521732 -0.054567 0.198885 1.587471 -3.607700 32.324447 0.459229 -1.652399 14.331129 0.177977 -0.841719 7.162807 -0.000001 -0.000001 0.000001 -12.702779 0.785936 -3.722342 1.587314 -3.607450 32.324249 0.459499 -1.653764 14.331045 0.177940 -0.840124 7.163101 -0.000000 -0.000001 0.000003 -12.544328 -0.205702 -6.499258 1.587155 -3.607190 32.324239 0.459113 -1.652519 14.331035 0.177790 -0.840638 7.163107 0.000001 -0.000001 -0.000001 10.121321 -5.316735 0.163050 -49.376978 2.145133 21.952361 41.503644 -7.453471 3.498089 -1.307815 1.003287 -16.165292 1.169123 -9.354692 13.784522 -0.279485 -0.000004 0.000008 0.516998 -0.004915 8.312321 0.000001 -0.000001 0.000000 -10.121301 -5.316535 0.163051 -39.090474 -6.615779 -16.035245 43.110170 3.595059 -5.499019 -11.772789 -2.290258 14.930235 -1.169118 -9.354715 13.784501 -0.013121 -0.000004 0.000001 -0.516970 -0.004952 8.311942 0.000003 -0.000001 -0.000000 
